<svg xmlns="http://www.w3.org/2000/svg" xmlns:xlink="http://www.w3.org/1999/xlink" width="129" zoomAndPan="magnify" viewBox="0 0 96.75 30.000001" height="40" preserveAspectRatio="xMidYMid meet" version="1.0"><defs><g/><clipPath id="6e49845571"><path d="M 38 6.050781 L 46 6.050781 L 46 13 L 38 13 Z M 38 6.050781 " clip-rule="nonzero"/></clipPath><clipPath id="0d1afdeb16"><path d="M 43 15 L 50 15 L 50 21.292969 L 43 21.292969 Z M 43 15 " clip-rule="nonzero"/></clipPath><clipPath id="76c021e39b"><path d="M 36.476562 12 L 43 12 L 43 19 L 36.476562 19 Z M 36.476562 12 " clip-rule="nonzero"/></clipPath><clipPath id="62c35daf07"><path d="M 45 8 L 51.71875 8 L 51.71875 15 L 45 15 Z M 45 8 " clip-rule="nonzero"/></clipPath></defs><g clip-path="url(#6e49845571)"><path fill="#201e1e" d="M 38.941406 12.027344 C 39.085938 11.953125 41.59375 9.40625 41.777344 9.222656 L 43.882812 7.113281 C 44.042969 6.949219 44.167969 7.003906 44.457031 7.023438 C 44.664062 7.035156 44.917969 7.074219 45.109375 7.066406 C 45.042969 6.976562 44.195312 6.097656 44.0625 6.050781 L 39.921875 10.199219 C 39.640625 10.515625 39.042969 11.46875 38.941406 12.027344 Z M 38.941406 12.027344 " fill-opacity="1" fill-rule="evenodd"/></g><g clip-path="url(#0d1afdeb16)"><path fill="#201e1e" d="M 44.105469 21.292969 C 44.328125 21.097656 44.597656 20.816406 44.8125 20.589844 L 46.886719 18.515625 C 47.71875 17.699219 48.96875 16.578125 49.234375 15.320312 C 49.078125 15.40625 45.320312 19.207031 45.015625 19.511719 C 44.023438 20.511719 44.410156 20.34375 43.074219 20.25 Z M 44.105469 21.292969 " fill-opacity="1" fill-rule="evenodd"/></g><g clip-path="url(#76c021e39b)"><path fill="#201e1e" d="M 42.449219 18.804688 C 42.089844 18.375 38.863281 15.226562 38.242188 14.589844 C 37.316406 13.640625 37.363281 14.058594 37.503906 12.652344 C 37.273438 12.753906 36.734375 13.429688 36.480469 13.632812 C 36.539062 13.78125 37.664062 14.855469 37.867188 15.0625 C 38.628906 15.828125 39.921875 17.167969 40.652344 17.84375 C 40.933594 18.101562 41.925781 18.722656 42.449219 18.804688 Z M 42.449219 18.804688 " fill-opacity="1" fill-rule="evenodd"/></g><g clip-path="url(#62c35daf07)"><path fill="#201e1e" d="M 50.667969 14.695312 C 50.839844 14.617188 51.59375 13.808594 51.71875 13.679688 L 50.347656 12.296875 C 49.875 11.820312 49.425781 11.367188 48.949219 10.894531 C 48.570312 10.515625 47.898438 9.808594 47.546875 9.496094 C 47.234375 9.21875 46.292969 8.597656 45.734375 8.515625 L 47.125 9.917969 C 48.304688 11.082031 49.476562 12.296875 50.652344 13.441406 C 50.832031 13.617188 50.703125 14.417969 50.667969 14.695312 Z M 50.667969 14.695312 " fill-opacity="1" fill-rule="evenodd"/></g><path fill="#201e1e" d="M 38.355469 14.183594 C 38.367188 12.570312 38.464844 11.667969 39.433594 10.285156 C 39.851562 9.683594 40.183594 9.472656 40.652344 9.007812 C 40.871094 8.792969 41.058594 8.601562 41.277344 8.386719 C 41.414062 8.253906 41.8125 7.875 41.886719 7.75 C 41.335938 7.878906 40.460938 8.464844 40.117188 8.742188 C 39.0625 9.59375 38.304688 10.757812 37.957031 12.144531 C 37.855469 12.546875 37.808594 12.929688 37.78125 13.363281 C 37.757812 13.71875 37.789062 13.652344 37.980469 13.839844 C 38.101562 13.960938 38.203125 14.101562 38.355469 14.183594 Z M 38.355469 14.183594 " fill-opacity="1" fill-rule="evenodd"/><path fill="#201e1e" d="M 38.183594 15.875 C 38.324219 16.230469 38.429688 16.511719 38.625 16.835938 C 38.925781 17.34375 39.402344 17.976562 39.859375 18.367188 C 40.992188 19.332031 42.242188 19.894531 43.804688 19.972656 C 44.203125 19.992188 44.117188 19.933594 44.464844 19.601562 C 44.59375 19.480469 44.578125 19.511719 44.625 19.390625 C 42.984375 19.476562 41.769531 19.078125 40.714844 18.324219 C 39.984375 17.800781 38.917969 16.523438 38.183594 15.875 Z M 38.183594 15.875 " fill-opacity="1" fill-rule="evenodd"/><path fill="#201e1e" d="M 43.582031 7.929688 C 45.398438 7.832031 46.886719 8.347656 48.140625 9.578125 C 48.453125 9.882812 49.800781 11.296875 50.003906 11.449219 C 49.714844 10.351562 48.519531 8.972656 47.5625 8.371094 C 47.003906 8.019531 46.371094 7.71875 45.636719 7.53125 C 45.257812 7.4375 44.851562 7.378906 44.433594 7.351562 C 44.074219 7.328125 44.121094 7.367188 43.941406 7.546875 C 43.832031 7.65625 43.671875 7.789062 43.582031 7.929688 Z M 43.582031 7.929688 " fill-opacity="1" fill-rule="evenodd"/><path fill="#201e1e" d="M 50.152344 13.433594 C 50.039062 13.324219 49.945312 13.203125 49.820312 13.121094 C 49.824219 14.019531 49.851562 14.484375 49.597656 15.328125 C 49.410156 15.957031 49.101562 16.5625 48.78125 17 C 48.335938 17.605469 47.523438 18.363281 46.957031 18.925781 C 46.851562 19.03125 46.773438 19.109375 46.65625 19.230469 C 46.574219 19.320312 46.4375 19.414062 46.347656 19.550781 C 46.851562 19.445312 47.863281 18.773438 48.140625 18.519531 C 48.617188 18.082031 49.097656 17.632812 49.433594 17.046875 C 49.785156 16.433594 50.066406 15.886719 50.246094 15.097656 C 50.332031 14.722656 50.394531 14.285156 50.40625 13.878906 C 50.414062 13.601562 50.304688 13.585938 50.152344 13.433594 Z M 50.152344 13.433594 " fill-opacity="1" fill-rule="evenodd"/><g fill="#000000" fill-opacity="1"><g transform="translate(21.985699, 21.474272)"><g><path d="M 2.0625 0 L 2.0625 -15.8125 L 8.8125 -15.8125 C 9.78125 -15.8125 10.601562 -15.65625 11.28125 -15.34375 C 11.957031 -15.039062 12.46875 -14.609375 12.8125 -14.046875 C 13.15625 -13.484375 13.328125 -12.816406 13.328125 -12.046875 C 13.328125 -11.335938 13.15625 -10.71875 12.8125 -10.1875 C 12.476562 -9.65625 11.992188 -9.226562 11.359375 -8.90625 L 11.359375 -8.671875 C 12.359375 -8.410156 13.125 -7.9375 13.65625 -7.25 C 14.195312 -6.570312 14.46875 -5.734375 14.46875 -4.734375 C 14.46875 -3.222656 14.007812 -2.054688 13.09375 -1.234375 C 12.1875 -0.410156 10.835938 0 9.046875 0 Z M 8.15625 -9.515625 C 9.613281 -9.515625 10.34375 -10.171875 10.34375 -11.484375 C 10.34375 -12.148438 10.160156 -12.644531 9.796875 -12.96875 C 9.441406 -13.300781 8.894531 -13.46875 8.15625 -13.46875 L 5.1875 -13.46875 L 5.1875 -9.515625 Z M 8.734375 -2.484375 C 10.453125 -2.484375 11.3125 -3.265625 11.3125 -4.828125 C 11.3125 -6.398438 10.453125 -7.1875 8.734375 -7.1875 L 5.1875 -7.1875 L 5.1875 -2.484375 Z M 8.734375 -2.484375 "/></g></g></g><g fill="#000000" fill-opacity="1"><g transform="translate(50.195754, 20.752674)"><g><path d="M 2.0625 0 L 2.0625 -15.8125 L 8.8125 -15.8125 C 9.78125 -15.8125 10.601562 -15.65625 11.28125 -15.34375 C 11.957031 -15.039062 12.46875 -14.609375 12.8125 -14.046875 C 13.15625 -13.484375 13.328125 -12.816406 13.328125 -12.046875 C 13.328125 -11.335938 13.15625 -10.71875 12.8125 -10.1875 C 12.476562 -9.65625 11.992188 -9.226562 11.359375 -8.90625 L 11.359375 -8.671875 C 12.359375 -8.410156 13.125 -7.9375 13.65625 -7.25 C 14.195312 -6.570312 14.46875 -5.734375 14.46875 -4.734375 C 14.46875 -3.222656 14.007812 -2.054688 13.09375 -1.234375 C 12.1875 -0.410156 10.835938 0 9.046875 0 Z M 8.15625 -9.515625 C 9.613281 -9.515625 10.34375 -10.171875 10.34375 -11.484375 C 10.34375 -12.148438 10.160156 -12.644531 9.796875 -12.96875 C 9.441406 -13.300781 8.894531 -13.46875 8.15625 -13.46875 L 5.1875 -13.46875 L 5.1875 -9.515625 Z M 8.734375 -2.484375 C 10.453125 -2.484375 11.3125 -3.265625 11.3125 -4.828125 C 11.3125 -6.398438 10.453125 -7.1875 8.734375 -7.1875 L 5.1875 -7.1875 L 5.1875 -2.484375 Z M 8.734375 -2.484375 "/></g></g></g><g fill="#000000" fill-opacity="1"><g transform="translate(34.361312, 25.65858)"><g><path d="M 2.453125 -5.015625 C 3.273438 -5.015625 3.898438 -4.800781 4.328125 -4.375 C 4.753906 -3.957031 4.96875 -3.335938 4.96875 -2.515625 C 4.96875 -1.679688 4.753906 -1.050781 4.328125 -0.625 C 3.898438 -0.207031 3.273438 0 2.453125 0 L 0.65625 0 L 0.65625 -5.015625 Z M 2.40625 -0.828125 C 2.914062 -0.828125 3.296875 -0.957031 3.546875 -1.21875 C 3.804688 -1.488281 3.9375 -1.921875 3.9375 -2.515625 C 3.9375 -3.097656 3.804688 -3.519531 3.546875 -3.78125 C 3.296875 -4.050781 2.914062 -4.1875 2.40625 -4.1875 L 1.640625 -4.1875 L 1.640625 -0.828125 Z M 2.40625 -0.828125 "/></g></g></g><g fill="#000000" fill-opacity="1"><g transform="translate(39.722907, 25.65858)"><g><path d="M 1.640625 -2.203125 L 1.640625 -0.828125 L 4.046875 -0.828125 L 4.046875 0 L 0.65625 0 L 0.65625 -5.015625 L 3.984375 -5.015625 L 3.984375 -4.1875 L 1.640625 -4.1875 L 1.640625 -3.015625 L 3.6875 -3.015625 L 3.6875 -2.203125 Z M 1.640625 -2.203125 "/></g></g></g><g fill="#000000" fill-opacity="1"><g transform="translate(44.034822, 25.65858)"><g><path d="M 2.75 0.078125 C 2.28125 0.078125 1.867188 -0.015625 1.515625 -0.203125 C 1.171875 -0.398438 0.894531 -0.691406 0.6875 -1.078125 C 0.488281 -1.460938 0.390625 -1.941406 0.390625 -2.515625 C 0.390625 -3.078125 0.488281 -3.550781 0.6875 -3.9375 C 0.894531 -4.320312 1.171875 -4.609375 1.515625 -4.796875 C 1.867188 -4.992188 2.28125 -5.09375 2.75 -5.09375 C 3.226562 -5.09375 3.632812 -5 3.96875 -4.8125 C 4.3125 -4.625 4.554688 -4.332031 4.703125 -3.9375 L 3.96875 -3.5 L 3.890625 -3.5 C 3.773438 -3.757812 3.625 -3.945312 3.4375 -4.0625 C 3.257812 -4.175781 3.03125 -4.234375 2.75 -4.234375 C 2.332031 -4.234375 2.003906 -4.09375 1.765625 -3.8125 C 1.535156 -3.539062 1.421875 -3.109375 1.421875 -2.515625 C 1.421875 -1.910156 1.535156 -1.46875 1.765625 -1.1875 C 2.003906 -0.914062 2.332031 -0.78125 2.75 -0.78125 C 3.394531 -0.78125 3.789062 -1.097656 3.9375 -1.734375 L 4.03125 -1.734375 L 4.765625 -1.359375 C 4.617188 -0.878906 4.378906 -0.519531 4.046875 -0.28125 C 3.722656 -0.0390625 3.289062 0.078125 2.75 0.078125 Z M 2.75 0.078125 "/></g></g></g><g fill="#000000" fill-opacity="1"><g transform="translate(48.953906, 25.65858)"><g><path d="M 0.65625 0 L 0.65625 -5.015625 L 1.640625 -5.015625 L 1.640625 -2.96875 L 1.75 -2.96875 L 3.4375 -5.015625 L 4.453125 -5.015625 L 4.453125 -4.9375 L 2.59375 -2.65625 L 4.640625 -0.078125 L 4.640625 0 L 3.515625 0 L 1.75 -2.171875 L 1.640625 -2.171875 L 1.640625 0 Z M 0.65625 0 "/></g></g></g></svg>