<svg xmlns="http://www.w3.org/2000/svg" xmlns:xlink="http://www.w3.org/1999/xlink" width="129" zoomAndPan="magnify" viewBox="0 0 96.75 30.000001" height="40" preserveAspectRatio="xMidYMid meet" version="1.0"><defs><g/><clipPath id="3bb8814626"><path d="M 37 2.902344 L 44 2.902344 L 44 14.515625 L 37 14.515625 Z M 37 2.902344 " clip-rule="nonzero"/></clipPath><clipPath id="abcfa6c859"><path d="M 30 2.902344 L 37 2.902344 L 37 14.515625 L 30 14.515625 Z M 30 2.902344 " clip-rule="nonzero"/></clipPath><clipPath id="5c532b5b1e"><path d="M 38 5 L 45 5 L 45 14.515625 L 38 14.515625 Z M 38 5 " clip-rule="nonzero"/></clipPath><clipPath id="dac33bd0be"><path d="M 29.152344 5 L 36 5 L 36 14.515625 L 29.152344 14.515625 Z M 29.152344 5 " clip-rule="nonzero"/></clipPath><clipPath id="bedcfcf36f"><path d="M 53 2.902344 L 60 2.902344 L 60 14.515625 L 53 14.515625 Z M 53 2.902344 " clip-rule="nonzero"/></clipPath><clipPath id="5c291c2ef4"><path d="M 46 2.902344 L 53 2.902344 L 53 14.515625 L 46 14.515625 Z M 46 2.902344 " clip-rule="nonzero"/></clipPath><clipPath id="f5edce0c21"><path d="M 54 5 L 60.972656 5 L 60.972656 14.515625 L 54 14.515625 Z M 54 5 " clip-rule="nonzero"/></clipPath><clipPath id="e1c5e0d9f3"><path d="M 45.003906 5 L 52 5 L 52 14.515625 L 45.003906 14.515625 Z M 45.003906 5 " clip-rule="nonzero"/></clipPath><clipPath id="445883f096"><path d="M 53 2.902344 L 64.542969 2.902344 L 64.542969 14.515625 L 53 14.515625 Z M 53 2.902344 " clip-rule="nonzero"/></clipPath><clipPath id="e0309914df"><path d="M 52.929688 2.902344 L 64.542969 2.902344 L 64.542969 14.515625 L 52.929688 14.515625 Z M 52.929688 2.902344 " clip-rule="nonzero"/></clipPath></defs><g clip-path="url(#3bb8814626)"><path fill="#000000" d="M 41.375 12.949219 C 42.101562 12.871094 42.792969 12.898438 43.433594 13.03125 L 43.433594 2.90625 C 42.863281 2.941406 41.6875 3.058594 40.53125 3.464844 C 39.613281 3.789062 38.886719 4.230469 38.371094 4.773438 C 38.070312 5.085938 37.839844 5.441406 37.683594 5.828125 C 37.511719 6.253906 37.421875 6.726562 37.421875 7.242188 L 37.421875 14.25 C 37.828125 14.03125 38.429688 13.738281 39.152344 13.476562 C 39.917969 13.203125 40.664062 13.027344 41.375 12.949219 " fill-opacity="1" fill-rule="nonzero"/></g><g clip-path="url(#abcfa6c859)"><path fill="#000000" d="M 32.765625 12.949219 C 33.480469 13.027344 34.226562 13.203125 34.992188 13.476562 C 35.714844 13.738281 36.316406 14.03125 36.71875 14.25 L 36.71875 7.242188 C 36.71875 6.726562 36.632812 6.253906 36.460938 5.828125 C 36.304688 5.441406 36.074219 5.085938 35.773438 4.773438 C 35.257812 4.230469 34.53125 3.789062 33.613281 3.464844 C 32.457031 3.058594 31.28125 2.941406 30.710938 2.90625 L 30.710938 13.03125 C 31.117188 12.949219 31.539062 12.90625 31.976562 12.90625 C 32.234375 12.90625 32.5 12.921875 32.765625 12.949219 " fill-opacity="1" fill-rule="nonzero"/></g><g clip-path="url(#5c532b5b1e)"><path fill="#000000" d="M 44.871094 5.050781 L 44.136719 5.050781 L 44.136719 13.480469 C 44.136719 13.59375 44.082031 13.695312 43.996094 13.761719 C 43.90625 13.828125 43.789062 13.851562 43.683594 13.820312 C 43.007812 13.621094 42.257812 13.5625 41.453125 13.648438 C 40.796875 13.71875 40.101562 13.886719 39.386719 14.140625 C 39.054688 14.257812 38.746094 14.386719 38.476562 14.511719 L 44.871094 14.511719 C 44.9375 14.511719 44.992188 14.457031 44.992188 14.390625 L 44.992188 5.175781 C 44.992188 5.109375 44.9375 5.050781 44.871094 5.050781 " fill-opacity="1" fill-rule="nonzero"/></g><g clip-path="url(#dac33bd0be)"><path fill="#000000" d="M 34.757812 14.140625 C 34.042969 13.886719 33.347656 13.71875 32.691406 13.648438 C 31.886719 13.5625 31.136719 13.621094 30.460938 13.820312 C 30.355469 13.851562 30.238281 13.828125 30.148438 13.761719 C 30.0625 13.695312 30.007812 13.59375 30.007812 13.480469 L 30.007812 5.050781 L 29.273438 5.050781 C 29.207031 5.050781 29.148438 5.109375 29.148438 5.175781 L 29.148438 14.390625 C 29.148438 14.457031 29.207031 14.511719 29.273438 14.511719 L 35.667969 14.511719 C 35.398438 14.386719 35.089844 14.257812 34.757812 14.140625 " fill-opacity="1" fill-rule="nonzero"/></g><g clip-path="url(#bedcfcf36f)"><path fill="#004aad" d="M 57.230469 12.949219 C 57.957031 12.871094 58.644531 12.898438 59.285156 13.03125 L 59.285156 2.90625 C 58.71875 2.941406 57.542969 3.058594 56.382812 3.464844 C 55.464844 3.789062 54.738281 4.230469 54.222656 4.773438 C 53.925781 5.085938 53.695312 5.441406 53.539062 5.828125 C 53.367188 6.253906 53.277344 6.726562 53.277344 7.242188 L 53.277344 14.25 C 53.679688 14.03125 54.28125 13.738281 55.003906 13.476562 C 55.769531 13.203125 56.519531 13.027344 57.230469 12.949219 " fill-opacity="1" fill-rule="nonzero"/></g><g clip-path="url(#5c291c2ef4)"><path fill="#004aad" d="M 48.621094 12.949219 C 49.332031 13.027344 50.082031 13.203125 50.847656 13.476562 C 51.570312 13.738281 52.171875 14.03125 52.574219 14.25 L 52.574219 7.242188 C 52.574219 6.726562 52.488281 6.253906 52.3125 5.828125 C 52.15625 5.441406 51.925781 5.085938 51.628906 4.773438 C 51.113281 4.230469 50.386719 3.789062 49.46875 3.464844 C 48.308594 3.058594 47.136719 2.941406 46.566406 2.90625 L 46.566406 13.03125 C 46.96875 12.949219 47.390625 12.90625 47.832031 12.90625 C 48.089844 12.90625 48.351562 12.921875 48.621094 12.949219 " fill-opacity="1" fill-rule="nonzero"/></g><g clip-path="url(#f5edce0c21)"><path fill="#004aad" d="M 60.722656 5.050781 L 59.988281 5.050781 L 59.988281 13.480469 C 59.988281 13.59375 59.9375 13.695312 59.847656 13.761719 C 59.757812 13.828125 59.644531 13.851562 59.539062 13.820312 C 58.863281 13.621094 58.113281 13.5625 57.304688 13.648438 C 56.648438 13.71875 55.953125 13.886719 55.242188 14.140625 C 54.90625 14.257812 54.601562 14.386719 54.328125 14.511719 L 60.722656 14.511719 C 60.792969 14.511719 60.847656 14.457031 60.847656 14.390625 L 60.847656 5.175781 C 60.847656 5.109375 60.792969 5.050781 60.722656 5.050781 " fill-opacity="1" fill-rule="nonzero"/></g><g clip-path="url(#e1c5e0d9f3)"><path fill="#004aad" d="M 50.609375 14.140625 C 49.898438 13.886719 49.203125 13.71875 48.546875 13.648438 C 47.738281 13.5625 46.988281 13.621094 46.3125 13.820312 C 46.207031 13.851562 46.09375 13.828125 46.003906 13.761719 C 45.914062 13.695312 45.863281 13.59375 45.863281 13.480469 L 45.863281 5.050781 L 45.128906 5.050781 C 45.058594 5.050781 45.003906 5.109375 45.003906 5.175781 L 45.003906 14.390625 C 45.003906 14.457031 45.058594 14.511719 45.128906 14.511719 L 51.523438 14.511719 C 51.25 14.386719 50.945312 14.257812 50.609375 14.140625 " fill-opacity="1" fill-rule="nonzero"/></g><g clip-path="url(#445883f096)"><path fill="#ffffff" d="M 53.007812 2.980469 L 64.464844 2.980469 L 64.464844 14.4375 L 53.007812 14.4375 Z M 53.007812 2.980469 " fill-opacity="1" fill-rule="nonzero"/></g><g clip-path="url(#e0309914df)"><path fill="#ffffff" d="M 64.464844 14.515625 L 53.007812 14.515625 C 52.964844 14.515625 52.929688 14.480469 52.929688 14.4375 L 52.929688 2.980469 C 52.929688 2.9375 52.964844 2.902344 53.007812 2.902344 L 64.464844 2.902344 C 64.511719 2.902344 64.542969 2.9375 64.542969 2.980469 L 64.542969 14.4375 C 64.542969 14.480469 64.511719 14.515625 64.464844 14.515625 Z M 53.085938 14.359375 L 64.390625 14.359375 L 64.390625 3.058594 L 53.085938 3.058594 Z M 53.085938 14.359375 " fill-opacity="1" fill-rule="nonzero"/></g><g fill="#000000" fill-opacity="1"><g transform="translate(7.83994, 21.212153)"><g><path d="M 0.6875 0 L 0.6875 -5.3125 L 2.953125 -5.3125 C 3.285156 -5.3125 3.5625 -5.257812 3.78125 -5.15625 C 4.007812 -5.050781 4.179688 -4.90625 4.296875 -4.71875 C 4.410156 -4.53125 4.46875 -4.304688 4.46875 -4.046875 C 4.46875 -3.804688 4.410156 -3.597656 4.296875 -3.421875 C 4.179688 -3.242188 4.019531 -3.097656 3.8125 -2.984375 L 3.8125 -2.90625 C 4.144531 -2.820312 4.398438 -2.664062 4.578125 -2.4375 C 4.765625 -2.207031 4.859375 -1.925781 4.859375 -1.59375 C 4.859375 -1.082031 4.703125 -0.6875 4.390625 -0.40625 C 4.085938 -0.132812 3.632812 0 3.03125 0 Z M 2.734375 -3.1875 C 3.222656 -3.1875 3.46875 -3.410156 3.46875 -3.859375 C 3.46875 -4.078125 3.40625 -4.238281 3.28125 -4.34375 C 3.164062 -4.457031 2.984375 -4.515625 2.734375 -4.515625 L 1.734375 -4.515625 L 1.734375 -3.1875 Z M 2.9375 -0.828125 C 3.507812 -0.828125 3.796875 -1.09375 3.796875 -1.625 C 3.796875 -2.144531 3.507812 -2.40625 2.9375 -2.40625 L 1.734375 -2.40625 L 1.734375 -0.828125 Z M 2.9375 -0.828125 "/></g></g><g transform="translate(13.034879, 21.212153)"><g><path d="M 2.890625 0.078125 C 2.410156 0.078125 1.984375 -0.0195312 1.609375 -0.21875 C 1.234375 -0.414062 0.941406 -0.71875 0.734375 -1.125 C 0.523438 -1.539062 0.421875 -2.050781 0.421875 -2.65625 C 0.421875 -3.257812 0.523438 -3.765625 0.734375 -4.171875 C 0.941406 -4.585938 1.234375 -4.894531 1.609375 -5.09375 C 1.984375 -5.289062 2.410156 -5.390625 2.890625 -5.390625 C 3.378906 -5.390625 3.804688 -5.289062 4.171875 -5.09375 C 4.546875 -4.894531 4.835938 -4.585938 5.046875 -4.171875 C 5.253906 -3.765625 5.359375 -3.257812 5.359375 -2.65625 C 5.359375 -2.050781 5.253906 -1.539062 5.046875 -1.125 C 4.835938 -0.71875 4.546875 -0.414062 4.171875 -0.21875 C 3.804688 -0.0195312 3.378906 0.078125 2.890625 0.078125 Z M 2.890625 -0.828125 C 3.335938 -0.828125 3.679688 -0.972656 3.921875 -1.265625 C 4.160156 -1.554688 4.28125 -2.019531 4.28125 -2.65625 C 4.28125 -3.289062 4.160156 -3.753906 3.921875 -4.046875 C 3.679688 -4.335938 3.335938 -4.484375 2.890625 -4.484375 C 2.441406 -4.484375 2.097656 -4.335938 1.859375 -4.046875 C 1.617188 -3.753906 1.5 -3.289062 1.5 -2.65625 C 1.5 -2.019531 1.617188 -1.554688 1.859375 -1.265625 C 2.097656 -0.972656 2.441406 -0.828125 2.890625 -0.828125 Z M 2.890625 -0.828125 "/></g></g><g transform="translate(18.821968, 21.212153)"><g><path d="M 0.6875 0 L 0.6875 -5.3125 L 2.953125 -5.3125 C 3.285156 -5.3125 3.5625 -5.257812 3.78125 -5.15625 C 4.007812 -5.050781 4.179688 -4.90625 4.296875 -4.71875 C 4.410156 -4.53125 4.46875 -4.304688 4.46875 -4.046875 C 4.46875 -3.804688 4.410156 -3.597656 4.296875 -3.421875 C 4.179688 -3.242188 4.019531 -3.097656 3.8125 -2.984375 L 3.8125 -2.90625 C 4.144531 -2.820312 4.398438 -2.664062 4.578125 -2.4375 C 4.765625 -2.207031 4.859375 -1.925781 4.859375 -1.59375 C 4.859375 -1.082031 4.703125 -0.6875 4.390625 -0.40625 C 4.085938 -0.132812 3.632812 0 3.03125 0 Z M 2.734375 -3.1875 C 3.222656 -3.1875 3.46875 -3.410156 3.46875 -3.859375 C 3.46875 -4.078125 3.40625 -4.238281 3.28125 -4.34375 C 3.164062 -4.457031 2.984375 -4.515625 2.734375 -4.515625 L 1.734375 -4.515625 L 1.734375 -3.1875 Z M 2.9375 -0.828125 C 3.507812 -0.828125 3.796875 -1.09375 3.796875 -1.625 C 3.796875 -2.144531 3.507812 -2.40625 2.9375 -2.40625 L 1.734375 -2.40625 L 1.734375 -0.828125 Z M 2.9375 -0.828125 "/></g></g><g transform="translate(24.016908, 21.212153)"><g/></g><g transform="translate(25.771562, 21.212153)"><g><path d="M 2.59375 -5.3125 C 3.457031 -5.3125 4.113281 -5.085938 4.5625 -4.640625 C 5.019531 -4.191406 5.25 -3.53125 5.25 -2.65625 C 5.25 -1.78125 5.019531 -1.117188 4.5625 -0.671875 C 4.113281 -0.222656 3.457031 0 2.59375 0 L 0.6875 0 L 0.6875 -5.3125 Z M 2.53125 -0.875 C 3.082031 -0.875 3.492188 -1.015625 3.765625 -1.296875 C 4.035156 -1.578125 4.171875 -2.03125 4.171875 -2.65625 C 4.171875 -3.28125 4.035156 -3.726562 3.765625 -4 C 3.492188 -4.28125 3.082031 -4.421875 2.53125 -4.421875 L 1.734375 -4.421875 L 1.734375 -0.875 Z M 2.53125 -0.875 "/></g></g><g transform="translate(31.449667, 21.212153)"><g><path d="M 1.734375 -2.328125 L 1.734375 -0.875 L 4.28125 -0.875 L 4.28125 0 L 0.6875 0 L 0.6875 -5.3125 L 4.21875 -5.3125 L 4.21875 -4.4375 L 1.734375 -4.4375 L 1.734375 -3.1875 L 3.90625 -3.1875 L 3.90625 -2.328125 Z M 1.734375 -2.328125 "/></g></g><g transform="translate(36.016128, 21.212153)"><g><path d="M 2.90625 0.078125 C 2.414062 0.078125 1.984375 -0.0195312 1.609375 -0.21875 C 1.234375 -0.425781 0.941406 -0.734375 0.734375 -1.140625 C 0.523438 -1.546875 0.421875 -2.050781 0.421875 -2.65625 C 0.421875 -3.25 0.523438 -3.75 0.734375 -4.15625 C 0.941406 -4.570312 1.234375 -4.878906 1.609375 -5.078125 C 1.984375 -5.285156 2.414062 -5.390625 2.90625 -5.390625 C 3.414062 -5.390625 3.847656 -5.285156 4.203125 -5.078125 C 4.554688 -4.878906 4.8125 -4.578125 4.96875 -4.171875 L 4.203125 -3.703125 L 4.109375 -3.703125 C 3.992188 -3.984375 3.835938 -4.179688 3.640625 -4.296875 C 3.453125 -4.421875 3.207031 -4.484375 2.90625 -4.484375 C 2.457031 -4.484375 2.109375 -4.335938 1.859375 -4.046875 C 1.617188 -3.753906 1.5 -3.289062 1.5 -2.65625 C 1.5 -2.019531 1.617188 -1.554688 1.859375 -1.265625 C 2.109375 -0.972656 2.457031 -0.828125 2.90625 -0.828125 C 3.59375 -0.828125 4.015625 -1.164062 4.171875 -1.84375 L 4.265625 -1.84375 L 5.03125 -1.4375 C 4.882812 -0.925781 4.632812 -0.546875 4.28125 -0.296875 C 3.9375 -0.046875 3.476562 0.078125 2.90625 0.078125 Z M 2.90625 0.078125 "/></g></g><g transform="translate(41.225598, 21.212153)"><g><path d="M 0.6875 0 L 0.6875 -5.3125 L 1.734375 -5.3125 L 1.734375 -3.140625 L 1.859375 -3.140625 L 3.625 -5.3125 L 4.703125 -5.3125 L 4.703125 -5.21875 L 2.75 -2.796875 L 4.90625 -0.09375 L 4.90625 0 L 3.71875 0 L 1.859375 -2.296875 L 1.734375 -2.296875 L 1.734375 0 Z M 0.6875 0 "/></g></g><g transform="translate(46.133544, 21.212153)"><g/></g><g transform="translate(47.888198, 21.212153)"><g><path d="M 1.65625 0 L 0.6875 0 L 0.6875 -5.3125 L 2.0625 -5.3125 L 3.40625 -1.40625 L 3.484375 -1.40625 L 4.8125 -5.3125 L 6.15625 -5.3125 L 6.15625 0 L 5.171875 0 L 5.171875 -3.515625 L 5.078125 -3.515625 L 3.84375 0 L 2.96875 0 L 1.75 -3.515625 L 1.65625 -3.515625 Z M 1.65625 0 "/></g></g><g transform="translate(54.743339, 21.212153)"><g><path d="M 4.0625 -5.3125 L 4.0625 -4.4375 L 1.734375 -4.4375 L 1.734375 -3.03125 L 3.84375 -3.03125 L 3.84375 -2.15625 L 1.734375 -2.15625 L 1.734375 0 L 0.6875 0 L 0.6875 -5.3125 Z M 4.0625 -5.3125 "/></g></g><g transform="translate(59.037337, 21.212153)"><g><path d="M 2.578125 0.078125 C 2.128906 0.078125 1.742188 -0.0195312 1.421875 -0.21875 C 1.097656 -0.425781 0.847656 -0.734375 0.671875 -1.140625 C 0.503906 -1.546875 0.421875 -2.050781 0.421875 -2.65625 C 0.421875 -3.257812 0.523438 -3.765625 0.734375 -4.171875 C 0.941406 -4.578125 1.234375 -4.878906 1.609375 -5.078125 C 1.984375 -5.285156 2.414062 -5.390625 2.90625 -5.390625 C 3.414062 -5.390625 3.847656 -5.289062 4.203125 -5.09375 C 4.566406 -4.90625 4.820312 -4.628906 4.96875 -4.265625 L 4.203125 -3.796875 L 4.109375 -3.796875 C 4.003906 -4.035156 3.851562 -4.207031 3.65625 -4.3125 C 3.457031 -4.425781 3.207031 -4.484375 2.90625 -4.484375 C 2.445312 -4.484375 2.097656 -4.335938 1.859375 -4.046875 C 1.617188 -3.753906 1.5 -3.289062 1.5 -2.65625 C 1.5 -2.007812 1.609375 -1.539062 1.828125 -1.25 C 2.054688 -0.96875 2.394531 -0.828125 2.84375 -0.828125 C 3.226562 -0.828125 3.507812 -0.910156 3.6875 -1.078125 C 3.875 -1.253906 3.96875 -1.507812 3.96875 -1.84375 L 3.96875 -2.078125 L 2.703125 -2.078125 L 2.703125 -2.9375 L 5 -2.9375 L 5 0 L 4 0 L 4 -0.71875 L 3.921875 -0.71875 C 3.816406 -0.46875 3.648438 -0.269531 3.421875 -0.125 C 3.203125 0.0078125 2.921875 0.078125 2.578125 0.078125 Z M 2.578125 0.078125 "/></g></g><g transform="translate(64.577395, 21.212153)"><g><path d="M 1.03125 0.03125 C 0.894531 0.03125 0.773438 0.00390625 0.671875 -0.046875 C 0.578125 -0.0976562 0.503906 -0.171875 0.453125 -0.265625 C 0.398438 -0.359375 0.375 -0.460938 0.375 -0.578125 C 0.375 -0.691406 0.398438 -0.796875 0.453125 -0.890625 C 0.503906 -0.984375 0.578125 -1.054688 0.671875 -1.109375 C 0.773438 -1.160156 0.894531 -1.1875 1.03125 -1.1875 C 1.15625 -1.1875 1.265625 -1.160156 1.359375 -1.109375 C 1.460938 -1.054688 1.539062 -0.984375 1.59375 -0.890625 C 1.644531 -0.796875 1.671875 -0.691406 1.671875 -0.578125 C 1.671875 -0.398438 1.609375 -0.253906 1.484375 -0.140625 C 1.367188 -0.0234375 1.21875 0.03125 1.03125 0.03125 Z M 1.03125 0.03125 "/></g></g><g transform="translate(66.629941, 21.212153)"><g><path d="M 1.734375 0 L 0.6875 0 L 0.6875 -5.3125 L 1.734375 -5.3125 Z M 1.734375 0 "/></g></g><g transform="translate(69.063934, 21.212153)"><g><path d="M 1.703125 0 L 0.6875 0 L 0.6875 -5.3125 L 1.890625 -5.3125 L 4.03125 -1.890625 L 4.125 -1.90625 L 4.125 -5.3125 L 5.125 -5.3125 L 5.125 0 L 4.046875 0 L 1.796875 -3.65625 L 1.703125 -3.640625 Z M 1.703125 0 "/></g></g><g transform="translate(74.887351, 21.212153)"><g><path d="M 2.90625 0.078125 C 2.414062 0.078125 1.984375 -0.0195312 1.609375 -0.21875 C 1.234375 -0.425781 0.941406 -0.734375 0.734375 -1.140625 C 0.523438 -1.546875 0.421875 -2.050781 0.421875 -2.65625 C 0.421875 -3.25 0.523438 -3.75 0.734375 -4.15625 C 0.941406 -4.570312 1.234375 -4.878906 1.609375 -5.078125 C 1.984375 -5.285156 2.414062 -5.390625 2.90625 -5.390625 C 3.414062 -5.390625 3.847656 -5.285156 4.203125 -5.078125 C 4.554688 -4.878906 4.8125 -4.578125 4.96875 -4.171875 L 4.203125 -3.703125 L 4.109375 -3.703125 C 3.992188 -3.984375 3.835938 -4.179688 3.640625 -4.296875 C 3.453125 -4.421875 3.207031 -4.484375 2.90625 -4.484375 C 2.457031 -4.484375 2.109375 -4.335938 1.859375 -4.046875 C 1.617188 -3.753906 1.5 -3.289062 1.5 -2.65625 C 1.5 -2.019531 1.617188 -1.554688 1.859375 -1.265625 C 2.109375 -0.972656 2.457031 -0.828125 2.90625 -0.828125 C 3.59375 -0.828125 4.015625 -1.164062 4.171875 -1.84375 L 4.265625 -1.84375 L 5.03125 -1.4375 C 4.882812 -0.925781 4.632812 -0.546875 4.28125 -0.296875 C 3.9375 -0.046875 3.476562 0.078125 2.90625 0.078125 Z M 2.90625 0.078125 "/></g></g><g transform="translate(80.096822, 21.212153)"><g><path d="M 1.03125 0.03125 C 0.894531 0.03125 0.773438 0.00390625 0.671875 -0.046875 C 0.578125 -0.0976562 0.503906 -0.171875 0.453125 -0.265625 C 0.398438 -0.359375 0.375 -0.460938 0.375 -0.578125 C 0.375 -0.691406 0.398438 -0.796875 0.453125 -0.890625 C 0.503906 -0.984375 0.578125 -1.054688 0.671875 -1.109375 C 0.773438 -1.160156 0.894531 -1.1875 1.03125 -1.1875 C 1.15625 -1.1875 1.265625 -1.160156 1.359375 -1.109375 C 1.460938 -1.054688 1.539062 -0.984375 1.59375 -0.890625 C 1.644531 -0.796875 1.671875 -0.691406 1.671875 -0.578125 C 1.671875 -0.398438 1.609375 -0.253906 1.484375 -0.140625 C 1.367188 -0.0234375 1.21875 0.03125 1.03125 0.03125 Z M 1.03125 0.03125 "/></g></g></g></svg>